<svg width="86" height="22" viewBox="0 0 86 22" fill="none" xmlns="http://www.w3.org/2000/svg">
<g clip-path="url(#clip0_9_177)">
<path d="M66.3098 4.90409C66.0369 5.79735 65.4368 6.56333 64.6221 7.05813L78.272 17.0926C78.5455 16.2004 79.1455 15.4354 79.9596 14.9413L66.3098 4.90409ZM19.6895 4.90553L6.04259 14.9414C6.85613 15.4358 7.45565 16.2006 7.72879 17.0926L21.3772 7.05954C20.5625 6.56473 19.9624 5.79876 19.6895 4.9055V4.90553ZM27.2558 4.90553C26.9825 5.799 26.3819 6.56501 25.5667 7.05957L39.2165 17.0954C39.4898 16.2012 40.0911 15.4346 40.9071 14.94L27.2558 4.90553ZM58.745 4.90696L45.0951 14.94C45.9106 15.4349 46.5113 16.2015 46.7842 17.0954L60.4341 7.0596C59.6191 6.56539 59.0185 5.79992 58.745 4.90696ZM85.9994 18.178C85.9994 18.68 85.8973 19.1771 85.699 19.6409C85.5007 20.1047 85.2101 20.5262 84.8437 20.8812C84.4773 21.2361 84.0423 21.5177 83.5636 21.7098C83.0849 21.902 82.5718 22.0008 82.0537 22.0008C81.5355 22.0008 81.0225 21.902 80.5437 21.7098C80.065 21.5177 79.6301 21.2361 79.2637 20.8811C78.8973 20.5262 78.6067 20.1047 78.4084 19.6409C78.2101 19.1771 78.108 18.68 78.108 18.178C78.108 17.1641 78.5237 16.1918 79.2637 15.4748C80.0036 14.7579 81.0072 14.3552 82.0537 14.3552C83.1001 14.3552 84.1037 14.7579 84.8437 15.4748C85.5836 16.1918 85.9994 17.1641 85.9994 18.178ZM66.4724 3.82285C66.4723 4.83673 66.0566 5.80908 65.3167 6.526C64.5767 7.24292 63.5731 7.64568 62.5267 7.64568C61.4802 7.64568 60.4766 7.24292 59.7367 6.526C58.9967 5.80908 58.581 4.83673 58.581 3.82285C58.581 3.32083 58.6831 2.82372 58.8814 2.35991C59.0797 1.8961 59.3703 1.47467 59.7367 1.11969C60.1031 0.764704 60.538 0.483114 61.0167 0.290998C61.4955 0.0988812 62.0085 3.55413e-08 62.5267 0C63.0448 -3.19908e-07 63.5579 0.0988805 64.0366 0.290997C64.5153 0.483113 64.9503 0.764703 65.3167 1.11969C65.6831 1.47467 65.9737 1.8961 66.172 2.35991C66.3703 2.82372 66.4724 3.32083 66.4724 3.82285ZM46.9453 18.178C46.9453 18.68 46.8433 19.1771 46.645 19.6409C46.4467 20.1047 46.1561 20.5262 45.7897 20.8812C45.4233 21.2361 44.9883 21.5177 44.5096 21.7098C44.0309 21.902 43.5178 22.0008 42.9997 22.0008C42.4815 22.0008 41.9684 21.902 41.4897 21.7098C41.011 21.5177 40.5761 21.2361 40.2097 20.8812C39.8433 20.5262 39.5526 20.1047 39.3544 19.6409C39.1561 19.1771 39.054 18.68 39.054 18.178C39.054 17.1641 39.4697 16.1918 40.2097 15.4748C40.9496 14.7579 41.9532 14.3552 42.9997 14.3552C44.0461 14.3552 45.0497 14.7579 45.7897 15.4748C46.5296 16.1918 46.9453 17.1641 46.9453 18.178ZM27.4183 3.82285C27.4183 4.83673 27.0026 5.80908 26.2627 6.526C25.5227 7.24292 24.5191 7.64568 23.4727 7.64568C22.4262 7.64568 21.4226 7.24292 20.6827 6.526C19.9427 5.80908 19.527 4.83673 19.527 3.82285C19.527 3.32083 19.6291 2.82372 19.8273 2.35991C20.0256 1.8961 20.3163 1.47467 20.6827 1.11969C21.049 0.764703 21.484 0.483113 21.9627 0.290997C22.4414 0.0988805 22.9545 -3.19908e-07 23.4727 0C23.9908 3.55413e-08 24.5039 0.0988812 24.9826 0.290998C25.4613 0.483114 25.8963 0.764704 26.2627 1.11969C26.6291 1.47467 26.9197 1.8961 27.118 2.35991C27.3163 2.82372 27.4183 3.32083 27.4183 3.82285ZM7.89133 18.178C7.89133 18.68 7.78928 19.1771 7.59099 19.6409C7.3927 20.1047 7.10207 20.5262 6.73568 20.8812C6.36929 21.2361 5.93432 21.5177 5.45561 21.7098C4.9769 21.902 4.46382 22.0008 3.94566 22.0008C3.42751 22.0008 2.91443 21.902 2.43572 21.7098C1.95701 21.5177 1.52204 21.2361 1.15565 20.8812C0.789263 20.5262 0.498628 20.1047 0.300341 19.6409C0.102054 19.1771 -2.27455e-06 18.68 0 18.178C3.03782e-06 17.1641 0.415707 16.1918 1.15566 15.4748C1.89562 14.7579 2.89921 14.3552 3.94566 14.3552C4.99212 14.3552 5.99571 14.7579 6.73567 15.4748C7.47562 16.1918 7.89133 17.1641 7.89133 18.178Z" fill="#E03138"/>
</g>
<defs>
<clipPath id="clip0_9_177">
<rect width="86" height="22" fill="white"/>
</clipPath>
</defs>
</svg>
